<svg version="1.2" xmlns="http://www.w3.org/2000/svg" viewBox="0 0 38 40" width="40" height="42">
	<title>image</title>
	<defs>
		<clipPath clipPathUnits="userSpaceOnUse" id="cp1">
			<path d="m0 0.85h37.54v37.54h-37.54z"/>
		</clipPath>
	</defs>
	<style>
		.s0 { fill: #12110f } 
	</style>
	<g id="Clip-Path" clip-path="url(#cp1)">
		<g id="Layer">
			<path id="Layer" fill-rule="evenodd" class="s0" d="m37.5 19.6c0 10.4-8.4 18.8-18.7 18.8-10.4 0-18.8-8.4-18.8-18.8 0-10.3 8.4-18.8 18.8-18.8 10.3 0 18.7 8.5 18.7 18.8zm-15 0.1h-4.1v2.3h0.9v2.8c0 0.5-0.3 0.8-0.9 0.8-0.5 0-0.9-0.3-0.9-0.8v-10.3c0-0.5 0.4-0.8 0.9-0.8 0.6 0 0.9 0.3 0.9 0.8v2.9h3.1v-2.8c0-2.1-1.6-3.9-4.1-3.9-2.4 0-4.1 1.8-4.1 3.9v10.1c0 2.2 1.4 3.8 3.7 3.8 0.9 0 1.9-0.5 2.4-1.5l0.3 1.2h1.9zm-9.4-8.6h-6.9v17.1h6.9v-3h-3.6v-4.5h2.5v-2.6h-2.5v-4.1h3.6zm19.1 3.6c0-2.3-1.9-3.9-4.2-3.9-2.3 0-4.1 1.6-4.1 3.9v9.9c0 2.3 1.8 4 4.1 4 2.3 0 4.2-1.7 4.2-4z"/>
			<path id="Layer" fill-rule="evenodd" class="s0" d="m28.8 14.5v10.3c0 0.4-0.3 0.7-0.8 0.7-0.4 0-0.8-0.3-0.8-0.7v-10.3c0-0.5 0.4-0.8 0.8-0.8 0.5 0 0.8 0.3 0.8 0.8z"/>
		</g>
	</g>
</svg>